<?xml version="1.0" encoding="iso-8859-1"?>
<!-- Generator: Adobe Illustrator 19.0.0, SVG Export Plug-In . SVG Version: 6.00 Build 0)  -->
<svg version="1.1" id="Capa_1" xmlns="http://www.w3.org/2000/svg" xmlns:xlink="http://www.w3.org/1999/xlink" x="0px" y="0px"
	 viewBox="0 0 511.996 511.996" style="enable-background:new 0 0 511.996 511.996;" xml:space="preserve">
<g>
	<path style="fill:#FFAF46;" d="M130.309,15.145H14.036v481.703h116.273V15.145z"/>
	<path style="fill:#FFAF46;" d="M246.583,496.848V15.145H130.309v481.703H246.583z"/>
</g>
<path style="fill:#FFE26E;" d="M260.975,38.4l124.67,465.291l112.311-30.098L373.287,8.302L260.975,38.4z M354.094,65.035
	l-48.17,12.898L354.094,65.035z M314.561,110.024l48.129-12.898L314.561,110.024z M404.838,446.958l48.17-12.898L404.838,446.958z
	 M444.371,401.969l-48.129,12.898L444.371,401.969z"/>
<g>
	<path style="fill:#231F20;" d="M505.979,471.442L381.31,6.151c-1.188-4.418-5.722-7.043-10.149-5.872L258.824,30.377
		c-1.545,0.457-2.915,1.362-3.937,2.6V15.145c0-4.584-3.721-8.305-8.305-8.305H14.036c-4.584,0-8.305,3.721-8.305,8.305v481.703
		c0,4.584,3.721,8.305,8.305,8.305h232.546c4.584,0,8.305-3.721,8.305-8.305V47.768l122.734,458.074
		c0.972,3.629,4.261,6.154,8.023,6.154c0.714-0.008,1.428-0.1,2.126-0.282l112.311-30.098c4.435-1.171,7.076-5.722,5.905-10.157
		C505.988,471.45,505.979,471.442,505.979,471.442z M22.342,23.45h99.663v465.092H22.342C22.342,488.543,22.342,23.45,22.342,23.45z
		 M238.277,488.543h-99.663V23.45h99.663V488.543z M391.517,493.526L271.149,44.272l96.266-25.804l120.367,449.254L391.517,493.526z
		"/>
	<path style="fill:#231F20;" d="M97.089,56.671H47.257c-4.584,0-8.305,3.721-8.305,8.305c0,4.584,3.721,8.305,8.305,8.305h49.831
		c4.584,0,8.305-3.721,8.305-8.305S101.681,56.671,97.089,56.671z"/>
	<path style="fill:#231F20;" d="M97.089,89.892H47.257c-4.584,0-8.305,3.721-8.305,8.305s3.721,8.305,8.305,8.305h49.831
		c4.584,0,8.305-3.721,8.305-8.305S101.681,89.892,97.089,89.892z"/>
	<path style="fill:#231F20;" d="M163.53,73.282h49.831c4.584,0,8.305-3.721,8.305-8.305s-3.721-8.305-8.305-8.305H163.53
		c-4.584,0-8.305,3.721-8.305,8.305S158.946,73.282,163.53,73.282z"/>
	<path style="fill:#231F20;" d="M163.53,106.503h49.831c4.584,0,8.305-3.721,8.305-8.305s-3.721-8.305-8.305-8.305H163.53
		c-4.584,0-8.305,3.721-8.305,8.305S158.946,106.503,163.53,106.503z"/>
	<path style="fill:#231F20;" d="M356.211,73.057c4.46-1.071,7.209-5.548,6.146-10.008s-5.548-7.209-10.008-6.146
		c-0.15,0.033-0.291,0.075-0.432,0.116l-48.17,12.89c-4.435,1.163-7.093,5.706-5.922,10.141c1.163,4.435,5.706,7.093,10.141,5.922
		c0.025-0.008,0.05-0.017,0.075-0.017L356.211,73.057z"/>
	<path style="fill:#231F20;" d="M360.538,89.103l-48.129,12.898c-4.435,1.163-7.093,5.706-5.922,10.141
		c1.163,4.435,5.706,7.093,10.141,5.922c0.025-0.008,0.05-0.017,0.075-0.017l48.17-12.898c4.435-1.188,7.059-5.739,5.872-10.174
		c-1.188-4.435-5.739-7.059-10.174-5.872l0,0C360.572,89.103,360.538,89.103,360.538,89.103z"/>
	<path style="fill:#231F20;" d="M396.243,423.172c-4.584,0-8.305-3.712-8.305-8.305c0-3.762,2.525-7.051,6.154-8.023l48.17-12.898
		c4.435-1.163,8.978,1.487,10.141,5.922c1.154,4.41-1.453,8.92-5.847,10.124l-48.162,12.94
		C397.696,423.097,396.965,423.18,396.243,423.172z"/>
	<path style="fill:#231F20;" d="M404.838,455.264c-4.584,0-8.305-3.712-8.305-8.305c0-3.762,2.525-7.051,6.154-8.023l48.17-12.898
		c4.435-1.163,8.978,1.487,10.141,5.922c1.154,4.41-1.453,8.92-5.847,10.124l-48.17,12.89
		C406.284,455.164,405.561,455.264,404.838,455.264z"/>
	<path style="fill:#231F20;" d="M213.362,422.101H163.53c-4.584,0-8.305-3.721-8.305-8.305c0-4.584,3.721-8.305,8.305-8.305h49.831
		c4.584,0,8.305,3.721,8.305,8.305C221.667,418.38,217.954,422.101,213.362,422.101z"/>
	<path style="fill:#231F20;" d="M213.362,455.322H163.53c-4.584,0-8.305-3.721-8.305-8.305c0-4.584,3.721-8.305,8.305-8.305h49.831
		c4.584,0,8.305,3.721,8.305,8.305C221.667,451.601,217.954,455.322,213.362,455.322z"/>
	<path style="fill:#231F20;" d="M97.089,422.101H47.257c-4.584,0-8.305-3.721-8.305-8.305c0-4.584,3.721-8.305,8.305-8.305h49.831
		c4.584,0,8.305,3.721,8.305,8.305C105.394,418.38,101.681,422.101,97.089,422.101z"/>
	<path style="fill:#231F20;" d="M97.089,455.322H47.257c-4.584,0-8.305-3.721-8.305-8.305c0-4.584,3.721-8.305,8.305-8.305h49.831
		c4.584,0,8.305,3.721,8.305,8.305C105.394,451.601,101.681,455.322,97.089,455.322z"/>
</g>
<g>
</g>
<g>
</g>
<g>
</g>
<g>
</g>
<g>
</g>
<g>
</g>
<g>
</g>
<g>
</g>
<g>
</g>
<g>
</g>
<g>
</g>
<g>
</g>
<g>
</g>
<g>
</g>
<g>
</g>
</svg>
